<svg xmlns="http://www.w3.org/2000/svg" xmlns:xlink="http://www.w3.org/1999/xlink" width="120" zoomAndPan="magnify" viewBox="0 0 90 89.999999" height="120" preserveAspectRatio="xMidYMid meet" version="1.0"><defs><g/><clipPath id="69db3ccd04"><path d="M 2 7 L 35.921875 7 L 35.921875 43 L 2 43 Z M 2 7 " clip-rule="nonzero"/></clipPath><clipPath id="b3ffdf7fec"><rect x="0" width="36" y="0" height="50"/></clipPath><clipPath id="0d39d4d951"><path d="M 35.421875 1.800781 L 81 1.800781 L 81 86.550781 L 35.421875 86.550781 Z M 35.421875 1.800781 " clip-rule="nonzero"/></clipPath><clipPath id="b07f4ede46"><path d="M 2 7 L 36.480469 7 L 36.480469 43 L 2 43 Z M 2 7 " clip-rule="nonzero"/></clipPath><clipPath id="acafdcf049"><rect x="0" width="37" y="0" height="49"/></clipPath><clipPath id="c7c3ef08a5"><path d="M 4 9 L 34.238281 9 L 34.238281 41 L 4 41 Z M 4 9 " clip-rule="nonzero"/></clipPath><clipPath id="e644edc6c5"><rect x="0" width="35" y="0" height="50"/></clipPath><clipPath id="fb2e06be51"><path d="M 2 6 L 34.519531 6 L 34.519531 39 L 2 39 Z M 2 6 " clip-rule="nonzero"/></clipPath><clipPath id="fd98d897e8"><rect x="0" width="35" y="0" height="46"/></clipPath><clipPath id="713f2354aa"><path d="M 1 7 L 33.761719 7 L 33.761719 40 L 1 40 Z M 1 7 " clip-rule="nonzero"/></clipPath><clipPath id="05361fbc76"><rect x="0" width="34" y="0" height="47"/></clipPath><clipPath id="53476d429e"><path d="M 4 8 L 32.601562 8 L 32.601562 37 L 4 37 Z M 4 8 " clip-rule="nonzero"/></clipPath><clipPath id="2be551fec7"><rect x="0" width="33" y="0" height="46"/></clipPath></defs><rect x="-9" width="108" fill="#ffffff" y="-9" height="107.999999" fill-opacity="1"/><rect x="-9" width="108" fill="#ffffff" y="-9" height="107.999999" fill-opacity="1"/><g transform="matrix(1, 0, 0, 1, 14, 37)"><g clip-path="url(#b3ffdf7fec)"><g clip-path="url(#69db3ccd04)"><g fill="#2107a9" fill-opacity="1"><g transform="translate(0.854793, 40.361676)"><g><path d="M 16.726562 -32.90625 C 22.664062 -32.90625 27.175781 -31.433594 30.261719 -28.496094 C 33.371094 -25.527344 34.929688 -21.1875 34.929688 -15.46875 C 34.929688 -9.75 33.371094 -5.410156 30.261719 -2.441406 C 27.175781 0.496094 22.664062 1.96875 16.726562 1.96875 L 1.359375 1.96875 L 1.359375 -32.90625 Z M 16.726562 -28.96875 L 3.328125 -28.96875 L 3.328125 -30.9375 L 5.292969 -30.9375 L 5.292969 0 L 3.328125 0 L 3.328125 -1.96875 L 16.726562 -1.96875 C 21.613281 -1.96875 25.21875 -3.074219 27.546875 -5.292969 C 29.84375 -7.480469 30.992188 -10.875 30.992188 -15.46875 C 30.992188 -20.0625 29.84375 -23.457031 27.546875 -25.644531 C 25.21875 -27.863281 21.613281 -28.96875 16.726562 -28.96875 Z M 13.265625 -9.386719 L 16.546875 -9.386719 C 18.0625 -9.386719 19.144531 -9.738281 19.796875 -10.4375 C 20.488281 -11.175781 20.832031 -12.402344 20.832031 -14.121094 L 20.832031 -16.816406 C 20.832031 -18.535156 20.488281 -19.761719 19.796875 -20.5 C 19.144531 -21.199219 18.0625 -21.550781 16.546875 -21.550781 L 13.265625 -21.550781 L 13.265625 -23.519531 L 15.234375 -23.519531 L 15.234375 -7.417969 L 13.265625 -7.417969 Z M 11.296875 -5.453125 L 11.296875 -25.484375 L 16.546875 -25.484375 C 19.203125 -25.484375 21.242188 -24.71875 22.675781 -23.183594 C 24.070312 -21.691406 24.765625 -19.566406 24.765625 -16.816406 L 24.765625 -14.121094 C 24.765625 -11.371094 24.070312 -9.246094 22.675781 -7.753906 C 21.242188 -6.21875 19.203125 -5.453125 16.546875 -5.453125 Z M 11.296875 -5.453125 "/></g></g></g></g><g fill="#ffffff" fill-opacity="1"><g transform="translate(0.854793, 40.361676)"><g><path d="M 16.734375 -30.9375 C 27.554688 -30.9375 32.96875 -25.78125 32.96875 -15.46875 C 32.96875 -5.15625 27.554688 0 16.734375 0 L 3.328125 0 L 3.328125 -30.9375 Z M 13.265625 -7.421875 L 16.546875 -7.421875 C 20.710938 -7.421875 22.796875 -9.65625 22.796875 -14.125 L 22.796875 -16.8125 C 22.796875 -21.28125 20.710938 -23.515625 16.546875 -23.515625 L 13.265625 -23.515625 Z M 13.265625 -7.421875 "/></g></g></g></g></g><g clip-path="url(#0d39d4d951)"><path fill="#2107a9" d="M 67.726562 4.085938 L 72.914062 62.90625 C 73.007812 63.988281 73.546875 65.003906 74.148438 65.863281 C 74.621094 66.53125 75.105469 67.117188 75.613281 67.492188 C 76.199219 67.929688 76.144531 68.296875 76.21875 68.957031 C 76.320312 69.78125 76.523438 70.933594 77.398438 72.023438 C 78.035156 72.816406 78.601562 73.332031 78.90625 73.691406 C 79.339844 74.199219 79.230469 74.320312 78.980469 74.828125 C 78.316406 76.132812 77.902344 77.414062 77.238281 78.488281 C 76.703125 79.347656 76.238281 79.234375 75.441406 79.136719 C 74.886719 79.066406 74.15625 79.046875 73.328125 79.371094 C 71.292969 80.167969 70.003906 80.925781 68.53125 82.589844 C 67.839844 83.371094 67.429688 84.089844 67.058594 84.511719 C 66.683594 84.929688 66.460938 85.097656 65.734375 85.097656 L 41.015625 85.097656 C 39.84375 85.097656 38.921875 84.863281 38.351562 84.457031 C 37.785156 84.050781 37.480469 83.507812 37.46875 82.507812 C 37.449219 80.777344 37.457031 79.007812 38.097656 78.125 C 39.175781 76.648438 39.554688 74.4375 39.476562 72.203125 L 40.511719 62.429688 C 40.699219 60.683594 41.136719 59.566406 41.546875 58.507812 C 41.886719 57.621094 42.3125 56.75 42.269531 55.6875 C 42.246094 55.15625 42.355469 54.800781 42.527344 54.476562 C 42.703125 54.140625 43.097656 53.785156 43.476562 53.355469 C 44.234375 52.484375 45.15625 51.359375 45.167969 49.839844 C 45.171875 48.734375 45.601562 48.097656 46.074219 47.410156 C 47.488281 45.371094 47.78125 43.136719 48.0625 41.539062 C 48.289062 40.242188 48.171875 38.34375 48.269531 36.734375 C 48.320312 35.925781 48.429688 35.207031 48.589844 34.78125 C 48.761719 34.335938 48.859375 34.359375 49.398438 34.371094 C 49.945312 34.386719 50.441406 34.472656 51.050781 34.363281 C 51.839844 34.214844 52.578125 33.664062 53.179688 32.871094 C 53.769531 32.066406 54.316406 31.777344 54.945312 31.417969 C 55.574219 31.0625 56.433594 30.644531 56.757812 29.855469 C 57.082031 29.0625 57.128906 28.992188 57.484375 28.753906 C 57.660156 28.640625 57.914062 28.496094 58.144531 28.207031 C 58.375 27.910156 58.523438 27.480469 58.496094 27.039062 C 58.421875 25.992188 58.527344 26.097656 58.933594 25.800781 C 59.273438 25.554688 59.390625 25.234375 59.40625 24.960938 C 59.429688 24.632812 59.339844 24.402344 59.253906 24.179688 C 59.070312 23.730469 58.796875 23.296875 58.5 22.835938 C 57.917969 21.90625 57.351562 20.8125 57.339844 20.511719 C 57.3125 19.332031 58.136719 17.632812 59.132812 16.433594 C 59.460938 16.039062 59.671875 15.644531 59.746094 15.234375 C 59.824219 14.824219 59.742188 14.445312 59.648438 14.164062 C 59.457031 13.605469 59.292969 13.371094 59.3125 12.957031 C 59.378906 11.824219 59.773438 11.152344 60.269531 9.804688 L 62.148438 4.683594 C 62.507812 3.683594 62.960938 3.410156 63.59375 3.726562 C 64.296875 4.078125 64.582031 4.339844 65.15625 4.539062 C 65.449219 4.644531 65.878906 4.679688 66.234375 4.53125 C 66.589844 4.375 66.8125 4.109375 67.066406 3.820312 C 67.515625 3.3125 67.6875 3.640625 67.726562 4.085938 Z M 66.878906 2.003906 C 66.617188 2.105469 66.34375 2.21875 66.167969 2.449219 C 65.746094 3.011719 65.574219 2.972656 65.117188 2.714844 C 64.894531 2.589844 64.601562 2.4375 64.253906 2.28125 C 63.617188 1.988281 62.847656 1.917969 62.167969 2.25 C 61.488281 2.578125 60.972656 3.238281 60.640625 4.140625 L 58.773438 9.261719 C 58.324219 10.496094 57.808594 11.398438 57.722656 12.863281 C 57.691406 13.386719 57.757812 13.832031 57.921875 14.140625 C 58.269531 14.792969 58.214844 15.054688 57.902344 15.414062 C 56.714844 16.789062 55.699219 18.6875 55.746094 20.546875 C 55.773438 21.773438 56.582031 22.773438 57.152344 23.679688 C 57.3125 23.910156 57.429688 24.144531 57.558594 24.367188 C 57.714844 24.632812 57.664062 24.707031 57.398438 24.886719 C 56.871094 25.453125 56.816406 26.070312 56.890625 26.859375 C 56.929688 27.261719 56.839844 27.28125 56.609375 27.425781 C 56.3125 27.609375 55.800781 27.96875 55.492188 28.613281 C 55.171875 29.292969 54.964844 29.566406 54.160156 30.035156 C 53.558594 30.375 52.757812 30.71875 52.070312 31.609375 C 51.390625 32.507812 51.09375 32.738281 50.765625 32.796875 C 50.429688 32.859375 49.820312 32.738281 48.851562 32.765625 C 48.421875 32.777344 47.996094 32.96875 47.703125 33.25 C 47.414062 33.53125 47.226562 33.863281 47.09375 34.222656 C 46.828125 34.9375 46.726562 35.765625 46.675781 36.640625 C 46.566406 38.386719 46.644531 40.367188 46.492188 41.257812 C 46.199219 42.90625 45.921875 44.835938 44.765625 46.507812 C 44.277344 47.21875 43.582031 48.273438 43.574219 49.828125 C 43.574219 50.683594 42.992188 51.484375 42.277344 52.300781 C 41.921875 52.707031 41.546875 53.109375 41.230469 53.539062 C 40.921875 53.976562 40.628906 54.488281 40.671875 55.128906 C 40.738281 56.144531 40.464844 56.882812 40.054688 57.9375 C 39.648438 58.996094 39.132812 60.320312 38.925781 62.265625 L 37.878906 72.203125 C 37.703125 73.859375 37.730469 75.882812 36.800781 77.183594 C 35.675781 78.765625 35.851562 80.835938 35.867188 82.523438 C 35.882812 83.914062 36.464844 85.0625 37.425781 85.75 C 38.390625 86.4375 39.636719 86.699219 41.015625 86.699219 L 65.734375 86.699219 C 66.855469 86.699219 67.703125 86.183594 68.25 85.5625 C 68.800781 84.941406 69.15625 84.277344 69.722656 83.640625 C 71.0625 82.128906 71.964844 81.621094 73.910156 80.859375 C 74.683594 80.558594 75.15625 80.742188 75.941406 80.8125 C 76.335938 80.847656 76.832031 80.835938 77.316406 80.601562 C 77.796875 80.367188 78.210938 79.945312 78.589844 79.335938 C 79.429688 77.984375 79.886719 76.570312 80.523438 75.304688 C 80.726562 74.890625 80.851562 74.472656 80.820312 74.039062 C 80.78125 73.609375 80.589844 73.242188 80.363281 72.953125 C 79.921875 72.363281 79.347656 71.902344 78.644531 71.03125 C 78.027344 70.261719 77.902344 69.523438 77.808594 68.769531 C 77.761719 68.394531 77.742188 68.019531 77.648438 67.628906 C 77.550781 67.234375 77.335938 66.769531 76.902344 66.480469 C 76.605469 66.28125 75.960938 65.660156 75.449219 64.941406 C 74.941406 64.21875 74.554688 63.378906 74.5 62.765625 L 69.316406 3.953125 C 69.242188 3.144531 68.882812 2.378906 68.132812 2.039062 C 67.753906 1.867188 67.289062 1.851562 66.878906 2.003906 Z M 66.878906 2.003906 " fill-opacity="1" fill-rule="nonzero"/></g><g transform="matrix(1, 0, 0, 1, 36, 41)"><g clip-path="url(#acafdcf049)"><g clip-path="url(#b07f4ede46)"><g fill="#2107a9" fill-opacity="1"><g transform="translate(0.93402, 40.231558)"><g><path d="M 23.921875 -32.90625 C 25.789062 -32.90625 27.511719 -32.515625 29.089844 -31.734375 C 30.714844 -30.929688 32.007812 -29.796875 32.964844 -28.328125 C 33.945312 -26.832031 34.433594 -25.167969 34.433594 -23.339844 C 34.433594 -21.011719 33.878906 -19.078125 32.769531 -17.535156 C 31.644531 -15.96875 30 -14.871094 27.835938 -14.253906 L 27.296875 -16.144531 L 29.261719 -16.144531 L 29.261719 -15.964844 L 27.296875 -15.964844 L 27.734375 -17.882812 C 30.160156 -17.324219 32.007812 -16.214844 33.277344 -14.546875 C 34.527344 -12.90625 35.152344 -10.800781 35.152344 -8.230469 C 35.152344 -6.226562 34.652344 -4.441406 33.652344 -2.875 C 32.664062 -1.328125 31.316406 -0.125 29.613281 0.726562 C 27.957031 1.554688 26.152344 1.96875 24.191406 1.96875 L 1.359375 1.96875 L 1.359375 -32.90625 Z M 23.921875 -28.96875 L 3.328125 -28.96875 L 3.328125 -30.9375 L 5.292969 -30.9375 L 5.292969 0 L 3.328125 0 L 3.328125 -1.96875 L 24.191406 -1.96875 C 25.53125 -1.96875 26.753906 -2.242188 27.855469 -2.792969 C 28.910156 -3.320312 29.738281 -4.054688 30.335938 -4.992188 C 30.925781 -5.914062 31.21875 -6.992188 31.21875 -8.230469 C 31.21875 -9.914062 30.863281 -11.226562 30.148438 -12.164062 C 29.453125 -13.074219 28.355469 -13.703125 26.855469 -14.046875 L 25.328125 -14.394531 L 25.328125 -17.625 L 26.753906 -18.035156 C 28.039062 -18.402344 28.980469 -19.003906 29.574219 -19.832031 C 30.191406 -20.6875 30.5 -21.855469 30.5 -23.339844 C 30.5 -24.386719 30.222656 -25.332031 29.671875 -26.171875 C 29.105469 -27.042969 28.328125 -27.722656 27.34375 -28.207031 C 26.316406 -28.714844 25.175781 -28.96875 23.921875 -28.96875 Z M 13.265625 -20.855469 L 20.101562 -20.855469 C 20.191406 -20.855469 20.257812 -20.878906 20.304688 -20.925781 C 20.386719 -21.015625 20.425781 -21.144531 20.425781 -21.316406 L 20.425781 -21.765625 C 20.425781 -21.894531 20.386719 -22 20.304688 -22.082031 C 20.242188 -22.148438 20.175781 -22.179688 20.101562 -22.179688 L 13.265625 -22.179688 L 13.265625 -24.148438 L 15.234375 -24.148438 L 15.234375 -18.886719 L 13.265625 -18.886719 Z M 11.296875 -16.917969 L 11.296875 -26.113281 L 20.101562 -26.113281 C 21.285156 -26.113281 22.296875 -25.683594 23.132812 -24.820312 C 23.953125 -23.972656 24.359375 -22.953125 24.359375 -21.765625 L 24.359375 -21.316406 C 24.359375 -20.105469 23.964844 -19.082031 23.179688 -18.238281 C 22.355469 -17.359375 21.328125 -16.917969 20.101562 -16.917969 Z M 13.265625 -9.160156 L 20.820312 -9.160156 C 20.910156 -9.160156 20.980469 -9.1875 21.023438 -9.234375 C 21.105469 -9.320312 21.144531 -9.453125 21.144531 -9.621094 L 21.144531 -10.074219 C 21.144531 -10.246094 21.105469 -10.375 21.023438 -10.460938 C 20.980469 -10.507812 20.910156 -10.535156 20.820312 -10.535156 L 13.265625 -10.535156 L 13.265625 -12.5 L 15.234375 -12.5 L 15.234375 -7.195312 L 13.265625 -7.195312 Z M 11.296875 -5.226562 L 11.296875 -14.46875 L 20.820312 -14.46875 C 22.046875 -14.46875 23.074219 -14.027344 23.898438 -13.148438 C 24.6875 -12.304688 25.082031 -11.28125 25.082031 -10.074219 L 25.082031 -9.621094 C 25.082031 -8.414062 24.6875 -7.390625 23.898438 -6.546875 C 23.074219 -5.667969 22.046875 -5.226562 20.820312 -5.226562 Z M 11.296875 -5.226562 "/></g></g></g></g><g fill="#ffffff" fill-opacity="1"><g transform="translate(0.93402, 40.231558)"><g><path d="M 23.921875 -30.9375 C 25.484375 -30.9375 26.914062 -30.613281 28.21875 -29.96875 C 29.519531 -29.320312 30.550781 -28.414062 31.3125 -27.25 C 32.082031 -26.082031 32.46875 -24.78125 32.46875 -23.34375 C 32.46875 -19.53125 30.742188 -17.128906 27.296875 -16.140625 L 27.296875 -15.96875 C 31.222656 -15.0625 33.1875 -12.484375 33.1875 -8.234375 C 33.1875 -6.609375 32.785156 -5.171875 31.984375 -3.921875 C 31.191406 -2.679688 30.109375 -1.71875 28.734375 -1.03125 C 27.359375 -0.34375 25.84375 0 24.1875 0 L 3.328125 0 L 3.328125 -30.9375 Z M 13.265625 -18.890625 L 20.09375 -18.890625 C 20.757812 -18.890625 21.304688 -19.117188 21.734375 -19.578125 C 22.171875 -20.046875 22.390625 -20.625 22.390625 -21.3125 L 22.390625 -21.765625 C 22.390625 -22.421875 22.164062 -22.976562 21.71875 -23.4375 C 21.269531 -23.90625 20.726562 -24.140625 20.09375 -24.140625 L 13.265625 -24.140625 Z M 13.265625 -7.1875 L 20.828125 -7.1875 C 21.484375 -7.1875 22.023438 -7.421875 22.453125 -7.890625 C 22.890625 -8.359375 23.109375 -8.9375 23.109375 -9.625 L 23.109375 -10.078125 C 23.109375 -10.765625 22.890625 -11.335938 22.453125 -11.796875 C 22.023438 -12.265625 21.484375 -12.5 20.828125 -12.5 L 13.265625 -12.5 Z M 13.265625 -7.1875 "/></g></g></g></g></g><g transform="matrix(1, 0, 0, 1, 14, 37)"><g clip-path="url(#e644edc6c5)"><g clip-path="url(#c7c3ef08a5)"><g fill="#ffffff" fill-opacity="1"><g transform="translate(1.111097, 40.361676)"><g><path d="M 16.734375 -30.9375 C 27.554688 -30.9375 32.96875 -25.78125 32.96875 -15.46875 C 32.96875 -5.15625 27.554688 0 16.734375 0 L 3.328125 0 L 3.328125 -30.9375 Z M 13.265625 -7.421875 L 16.546875 -7.421875 C 20.710938 -7.421875 22.796875 -9.65625 22.796875 -14.125 L 22.796875 -16.8125 C 22.796875 -21.28125 20.710938 -23.515625 16.546875 -23.515625 L 13.265625 -23.515625 Z M 13.265625 -7.421875 "/></g></g></g></g></g></g><g transform="matrix(1, 0, 0, 1, 31, 17)"><g clip-path="url(#fd98d897e8)"><g clip-path="url(#fb2e06be51)"><g fill="#2107a9" fill-opacity="1"><g transform="translate(1.12103, 36.471931)"><g><path d="M 20.371094 0 L 20.371094 -10.757812 L 22.175781 -10.757812 L 22.175781 -8.953125 L 12.160156 -8.953125 L 12.160156 -10.757812 L 13.960938 -10.757812 L 13.960938 1.804688 L 1.246094 1.804688 L 1.246094 -30.160156 L 13.960938 -30.160156 L 13.960938 -18.011719 L 12.160156 -18.011719 L 12.160156 -19.816406 L 22.175781 -19.816406 L 22.175781 -18.011719 L 20.371094 -18.011719 L 20.371094 -30.160156 L 33.085938 -30.160156 L 33.085938 1.804688 L 20.371094 1.804688 Z M 23.976562 0 L 22.175781 0 L 22.175781 -1.804688 L 31.28125 -1.804688 L 31.28125 0 L 29.480469 0 L 29.480469 -28.355469 L 31.28125 -28.355469 L 31.28125 -26.554688 L 22.175781 -26.554688 L 22.175781 -28.355469 L 23.976562 -28.355469 L 23.976562 -16.207031 L 10.355469 -16.207031 L 10.355469 -28.355469 L 12.160156 -28.355469 L 12.160156 -26.554688 L 3.050781 -26.554688 L 3.050781 -28.355469 L 4.851562 -28.355469 L 4.851562 0 L 3.050781 0 L 3.050781 -1.804688 L 12.160156 -1.804688 L 12.160156 0 L 10.355469 0 L 10.355469 -12.5625 L 23.976562 -12.5625 Z M 23.976562 0 "/></g></g></g></g><g fill="#ffffff" fill-opacity="1"><g transform="translate(1.12103, 36.471931)"><g><path d="M 22.171875 0 L 22.171875 -10.765625 L 12.15625 -10.765625 L 12.15625 0 L 3.046875 0 L 3.046875 -28.359375 L 12.15625 -28.359375 L 12.15625 -18.015625 L 22.171875 -18.015625 L 22.171875 -28.359375 L 31.28125 -28.359375 L 31.28125 0 Z M 22.171875 0 "/></g></g></g></g></g><g transform="matrix(1, 0, 0, 1, 8, 12)"><g clip-path="url(#05361fbc76)"><g clip-path="url(#713f2354aa)"><g fill="#2107a9" fill-opacity="1"><g transform="translate(0.421431, 37.231185)"><g><path d="M 21.964844 1.179688 L 10.054688 -12.585938 L 11.417969 -13.765625 L 13.21875 -13.765625 L 13.21875 1.804688 L 1.246094 1.804688 L 1.246094 -30.160156 L 11.835938 -30.160156 L 24.289062 -15.554688 L 22.917969 -14.382812 L 21.113281 -14.382812 L 21.113281 -30.160156 L 33.085938 -30.160156 L 33.085938 1.804688 L 22.503906 1.804688 Z M 24.691406 -1.179688 L 23.328125 0 L 23.328125 -1.804688 L 31.28125 -1.804688 L 31.28125 0 L 29.480469 0 L 29.480469 -28.355469 L 31.28125 -28.355469 L 31.28125 -26.554688 L 22.917969 -26.554688 L 22.917969 -28.355469 L 24.71875 -28.355469 L 24.71875 -9.488281 L 9.632812 -27.1875 L 11.003906 -28.355469 L 11.003906 -26.554688 L 3.050781 -26.554688 L 3.050781 -28.355469 L 4.851562 -28.355469 L 4.851562 0 L 3.050781 0 L 3.050781 -1.804688 L 11.417969 -1.804688 L 11.417969 0 L 9.613281 0 L 9.613281 -18.605469 Z M 24.691406 -1.179688 "/></g></g></g></g><g fill="#ffffff" fill-opacity="1"><g transform="translate(0.421431, 37.231185)"><g><path d="M 23.328125 0 L 11.421875 -13.765625 L 11.421875 0 L 3.046875 0 L 3.046875 -28.359375 L 11 -28.359375 L 22.921875 -14.390625 L 22.921875 -28.359375 L 31.28125 -28.359375 L 31.28125 0 Z M 23.328125 0 "/></g></g></g></g></g><g transform="matrix(1, 0, 0, 1, 31, 17)"><g clip-path="url(#2be551fec7)"><g clip-path="url(#53476d429e)"><g fill="#ffffff" fill-opacity="1"><g transform="translate(1.12103, 36.402086)"><g><path d="M 22.171875 0 L 22.171875 -10.765625 L 12.15625 -10.765625 L 12.15625 0 L 3.046875 0 L 3.046875 -28.359375 L 12.15625 -28.359375 L 12.15625 -18.015625 L 22.171875 -18.015625 L 22.171875 -28.359375 L 31.28125 -28.359375 L 31.28125 0 Z M 22.171875 0 "/></g></g></g></g></g></g></svg>